M48
; DRILL file {KiCad 9.0.7} date 2026-03-07T14:59:50-0500
; FORMAT={-:-/ absolute / metric / decimal}
; #@! TF.CreationDate,2026-03-07T14:59:50-05:00
; #@! TF.GenerationSoftware,Kicad,Pcbnew,9.0.7
; #@! TF.FileFunction,Plated,1,2,PTH
FMAT,2
METRIC
; #@! TA.AperFunction,Plated,PTH,ComponentDrill
T1C0.650
; #@! TA.AperFunction,Plated,PTH,ComponentDrill
T2C0.700
; #@! TA.AperFunction,Plated,PTH,ComponentDrill
T3C0.750
; #@! TA.AperFunction,Plated,PTH,ComponentDrill
T4C0.762
; #@! TA.AperFunction,Plated,PTH,ComponentDrill
T5C1.000
; #@! TA.AperFunction,Plated,PTH,ComponentDrill
T6C1.020
; #@! TA.AperFunction,Plated,PTH,ComponentDrill
T7C1.100
%
G90
G05
T1
X194.62Y-81.76
X195.89Y-81.76
T2
X194.1Y-85.0
X196.0Y-85.0
T3
X187.46Y-83.0
X188.73Y-83.0
X190.0Y-83.0
T4
X198.5Y-59.75
X198.5Y-61.75
X198.5Y-63.75
X198.5Y-65.75
T5
X168.74Y-44.7
X168.74Y-47.24
X168.74Y-49.78
X168.74Y-52.32
X168.74Y-54.86
X168.74Y-57.4
X168.74Y-59.94
X168.74Y-62.48
X168.74Y-65.02
X168.74Y-67.56
X168.74Y-70.1
X168.74Y-72.64
X168.74Y-75.18
X168.74Y-77.72
X168.74Y-80.26
X183.98Y-44.7
X183.98Y-47.24
X183.98Y-49.78
X183.98Y-52.32
X183.98Y-54.86
X183.98Y-57.4
X183.98Y-59.94
X183.98Y-62.48
X183.98Y-65.02
X183.98Y-67.56
X183.98Y-70.1
X183.98Y-72.64
X183.98Y-75.18
X183.98Y-77.72
X183.98Y-80.26
T6
X188.29Y-74.0
X190.83Y-74.0
X193.37Y-74.0
T7
X188.25Y-57.92
X188.25Y-68.08
T5
G00X187.5Y-46.75
M15
G01X187.5Y-45.25
M16
G05
G00X192.65Y-47.0
M15
G01X191.35Y-47.0
M16
G05
G00X193.0Y-53.0
M15
G01X191.0Y-53.0
M16
G05
G00X196.5Y-46.75
M15
G01X196.5Y-45.25
M16
G05
M30
