%TF.GenerationSoftware,KiCad,Pcbnew,9.0.7*%
%TF.CreationDate,2026-03-07T14:57:49-05:00*%
%TF.ProjectId,dohikey,646f6869-6b65-4792-9e6b-696361645f70,rev?*%
%TF.SameCoordinates,Original*%
%TF.FileFunction,Legend,Top*%
%TF.FilePolarity,Positive*%
%FSLAX46Y46*%
G04 Gerber Fmt 4.6, Leading zero omitted, Abs format (unit mm)*
G04 Created by KiCad (PCBNEW 9.0.7) date 2026-03-07 14:57:49*
%MOMM*%
%LPD*%
G01*
G04 APERTURE LIST*
%ADD10C,0.150000*%
%ADD11C,0.120000*%
G04 APERTURE END LIST*
D10*
X190954819Y-68238094D02*
X189954819Y-68238094D01*
X189954819Y-68238094D02*
X189954819Y-67999999D01*
X189954819Y-67999999D02*
X190002438Y-67857142D01*
X190002438Y-67857142D02*
X190097676Y-67761904D01*
X190097676Y-67761904D02*
X190192914Y-67714285D01*
X190192914Y-67714285D02*
X190383390Y-67666666D01*
X190383390Y-67666666D02*
X190526247Y-67666666D01*
X190526247Y-67666666D02*
X190716723Y-67714285D01*
X190716723Y-67714285D02*
X190811961Y-67761904D01*
X190811961Y-67761904D02*
X190907200Y-67857142D01*
X190907200Y-67857142D02*
X190954819Y-67999999D01*
X190954819Y-67999999D02*
X190954819Y-68238094D01*
X190954819Y-66714285D02*
X190954819Y-67285713D01*
X190954819Y-66999999D02*
X189954819Y-66999999D01*
X189954819Y-66999999D02*
X190097676Y-67095237D01*
X190097676Y-67095237D02*
X190192914Y-67190475D01*
X190192914Y-67190475D02*
X190240533Y-67285713D01*
X186604819Y-68341904D02*
X185604819Y-68341904D01*
X186604819Y-67770476D02*
X186033390Y-68199047D01*
X185604819Y-67770476D02*
X186176247Y-68341904D01*
X198166666Y-68954819D02*
X198166666Y-69669104D01*
X198166666Y-69669104D02*
X198119047Y-69811961D01*
X198119047Y-69811961D02*
X198023809Y-69907200D01*
X198023809Y-69907200D02*
X197880952Y-69954819D01*
X197880952Y-69954819D02*
X197785714Y-69954819D01*
X199166666Y-69954819D02*
X198595238Y-69954819D01*
X198880952Y-69954819D02*
X198880952Y-68954819D01*
X198880952Y-68954819D02*
X198785714Y-69097676D01*
X198785714Y-69097676D02*
X198690476Y-69192914D01*
X198690476Y-69192914D02*
X198595238Y-69240533D01*
X188634761Y-87110057D02*
X188539523Y-87062438D01*
X188539523Y-87062438D02*
X188444285Y-86967200D01*
X188444285Y-86967200D02*
X188301428Y-86824342D01*
X188301428Y-86824342D02*
X188206190Y-86776723D01*
X188206190Y-86776723D02*
X188110952Y-86776723D01*
X188158571Y-87014819D02*
X188063333Y-86967200D01*
X188063333Y-86967200D02*
X187968095Y-86871961D01*
X187968095Y-86871961D02*
X187920476Y-86681485D01*
X187920476Y-86681485D02*
X187920476Y-86348152D01*
X187920476Y-86348152D02*
X187968095Y-86157676D01*
X187968095Y-86157676D02*
X188063333Y-86062438D01*
X188063333Y-86062438D02*
X188158571Y-86014819D01*
X188158571Y-86014819D02*
X188349047Y-86014819D01*
X188349047Y-86014819D02*
X188444285Y-86062438D01*
X188444285Y-86062438D02*
X188539523Y-86157676D01*
X188539523Y-86157676D02*
X188587142Y-86348152D01*
X188587142Y-86348152D02*
X188587142Y-86681485D01*
X188587142Y-86681485D02*
X188539523Y-86871961D01*
X188539523Y-86871961D02*
X188444285Y-86967200D01*
X188444285Y-86967200D02*
X188349047Y-87014819D01*
X188349047Y-87014819D02*
X188158571Y-87014819D01*
X189539523Y-87014819D02*
X188968095Y-87014819D01*
X189253809Y-87014819D02*
X189253809Y-86014819D01*
X189253809Y-86014819D02*
X189158571Y-86157676D01*
X189158571Y-86157676D02*
X189063333Y-86252914D01*
X189063333Y-86252914D02*
X188968095Y-86300533D01*
X195166666Y-39454819D02*
X195166666Y-40169104D01*
X195166666Y-40169104D02*
X195119047Y-40311961D01*
X195119047Y-40311961D02*
X195023809Y-40407200D01*
X195023809Y-40407200D02*
X194880952Y-40454819D01*
X194880952Y-40454819D02*
X194785714Y-40454819D01*
X196071428Y-39788152D02*
X196071428Y-40454819D01*
X195833333Y-39407200D02*
X195595238Y-40121485D01*
X195595238Y-40121485D02*
X196214285Y-40121485D01*
X194416666Y-79454819D02*
X194416666Y-80169104D01*
X194416666Y-80169104D02*
X194369047Y-80311961D01*
X194369047Y-80311961D02*
X194273809Y-80407200D01*
X194273809Y-80407200D02*
X194130952Y-80454819D01*
X194130952Y-80454819D02*
X194035714Y-80454819D01*
X194797619Y-79454819D02*
X195416666Y-79454819D01*
X195416666Y-79454819D02*
X195083333Y-79835771D01*
X195083333Y-79835771D02*
X195226190Y-79835771D01*
X195226190Y-79835771D02*
X195321428Y-79883390D01*
X195321428Y-79883390D02*
X195369047Y-79931009D01*
X195369047Y-79931009D02*
X195416666Y-80026247D01*
X195416666Y-80026247D02*
X195416666Y-80264342D01*
X195416666Y-80264342D02*
X195369047Y-80359580D01*
X195369047Y-80359580D02*
X195321428Y-80407200D01*
X195321428Y-80407200D02*
X195226190Y-80454819D01*
X195226190Y-80454819D02*
X194940476Y-80454819D01*
X194940476Y-80454819D02*
X194845238Y-80407200D01*
X194845238Y-80407200D02*
X194797619Y-80359580D01*
X175645714Y-39789104D02*
X176121904Y-39789104D01*
X175550476Y-40074819D02*
X175883809Y-39074819D01*
X175883809Y-39074819D02*
X176217142Y-40074819D01*
X177074285Y-40074819D02*
X176502857Y-40074819D01*
X176788571Y-40074819D02*
X176788571Y-39074819D01*
X176788571Y-39074819D02*
X176693333Y-39217676D01*
X176693333Y-39217676D02*
X176598095Y-39312914D01*
X176598095Y-39312914D02*
X176502857Y-39360533D01*
X175098095Y-79714819D02*
X175098095Y-80524342D01*
X175098095Y-80524342D02*
X175145714Y-80619580D01*
X175145714Y-80619580D02*
X175193333Y-80667200D01*
X175193333Y-80667200D02*
X175288571Y-80714819D01*
X175288571Y-80714819D02*
X175479047Y-80714819D01*
X175479047Y-80714819D02*
X175574285Y-80667200D01*
X175574285Y-80667200D02*
X175621904Y-80619580D01*
X175621904Y-80619580D02*
X175669523Y-80524342D01*
X175669523Y-80524342D02*
X175669523Y-79714819D01*
X176098095Y-80667200D02*
X176240952Y-80714819D01*
X176240952Y-80714819D02*
X176479047Y-80714819D01*
X176479047Y-80714819D02*
X176574285Y-80667200D01*
X176574285Y-80667200D02*
X176621904Y-80619580D01*
X176621904Y-80619580D02*
X176669523Y-80524342D01*
X176669523Y-80524342D02*
X176669523Y-80429104D01*
X176669523Y-80429104D02*
X176621904Y-80333866D01*
X176621904Y-80333866D02*
X176574285Y-80286247D01*
X176574285Y-80286247D02*
X176479047Y-80238628D01*
X176479047Y-80238628D02*
X176288571Y-80191009D01*
X176288571Y-80191009D02*
X176193333Y-80143390D01*
X176193333Y-80143390D02*
X176145714Y-80095771D01*
X176145714Y-80095771D02*
X176098095Y-80000533D01*
X176098095Y-80000533D02*
X176098095Y-79905295D01*
X176098095Y-79905295D02*
X176145714Y-79810057D01*
X176145714Y-79810057D02*
X176193333Y-79762438D01*
X176193333Y-79762438D02*
X176288571Y-79714819D01*
X176288571Y-79714819D02*
X176526666Y-79714819D01*
X176526666Y-79714819D02*
X176669523Y-79762438D01*
X177431428Y-80191009D02*
X177574285Y-80238628D01*
X177574285Y-80238628D02*
X177621904Y-80286247D01*
X177621904Y-80286247D02*
X177669523Y-80381485D01*
X177669523Y-80381485D02*
X177669523Y-80524342D01*
X177669523Y-80524342D02*
X177621904Y-80619580D01*
X177621904Y-80619580D02*
X177574285Y-80667200D01*
X177574285Y-80667200D02*
X177479047Y-80714819D01*
X177479047Y-80714819D02*
X177098095Y-80714819D01*
X177098095Y-80714819D02*
X177098095Y-79714819D01*
X177098095Y-79714819D02*
X177431428Y-79714819D01*
X177431428Y-79714819D02*
X177526666Y-79762438D01*
X177526666Y-79762438D02*
X177574285Y-79810057D01*
X177574285Y-79810057D02*
X177621904Y-79905295D01*
X177621904Y-79905295D02*
X177621904Y-80000533D01*
X177621904Y-80000533D02*
X177574285Y-80095771D01*
X177574285Y-80095771D02*
X177526666Y-80143390D01*
X177526666Y-80143390D02*
X177431428Y-80191009D01*
X177431428Y-80191009D02*
X177098095Y-80191009D01*
%TO.C,D1*%
D11*
X186780000Y-65720000D02*
X189720000Y-65720000D01*
X189720000Y-60280000D01*
X186780000Y-60280000D01*
X186780000Y-65720000D01*
X188250000Y-59260000D02*
X188250000Y-60280000D01*
X186780000Y-64700000D02*
X189720000Y-64700000D01*
X186780000Y-64820000D02*
X189720000Y-64820000D01*
X186780000Y-64940000D02*
X189720000Y-64940000D01*
X188250000Y-66740000D02*
X188250000Y-65720000D01*
%TO.C,J1*%
X201500000Y-56750000D02*
X201500000Y-59750000D01*
X201050000Y-57250000D02*
X201050000Y-68300000D01*
X198500000Y-56750000D02*
X201500000Y-56750000D01*
X195200000Y-68300000D02*
X201050000Y-68300000D01*
X195200000Y-65650000D02*
X195200000Y-68300000D01*
X195200000Y-64750000D02*
X195200000Y-65350000D01*
X195200000Y-61000000D02*
X195200000Y-64500000D01*
X195200000Y-60150000D02*
X195200000Y-60750000D01*
X195200000Y-57250000D02*
X201050000Y-57250000D01*
X195200000Y-57250000D02*
X195200000Y-59900000D01*
%TO.C,R1*%
X194517133Y-85820000D02*
G75*
G02*
X194517133Y-84180000I-417133J820000D01*
G01*
%TO.C,Q1*%
X190530000Y-81150000D02*
X186930000Y-81150000D01*
X190568478Y-81161522D02*
G75*
G02*
X188730000Y-85600001I-1838478J-1838478D01*
G01*
X188730000Y-85600000D02*
G75*
G02*
X186891522Y-81161522I0J2600000D01*
G01*
%TO.C,J4*%
X197110000Y-54110000D02*
X194300000Y-54110000D01*
X197110000Y-48050000D02*
X197110000Y-54110000D01*
X197110000Y-40890000D02*
X197110000Y-43950000D01*
X193000000Y-54300000D02*
X191000000Y-54300000D01*
X189700000Y-54110000D02*
X186890000Y-54110000D01*
X186890000Y-54110000D02*
X186890000Y-48050000D01*
X186890000Y-43950000D02*
X186890000Y-40890000D01*
X186890000Y-40890000D02*
X197110000Y-40890000D01*
%TO.C,J3*%
X193440000Y-80950000D02*
X194620000Y-80950000D01*
X193440000Y-81760000D02*
X193440000Y-80950000D01*
X193440000Y-82570000D02*
X193440000Y-82505000D01*
X193440000Y-82570000D02*
X193953292Y-82570000D01*
X193440000Y-82570000D02*
X197070000Y-82570000D01*
X196207923Y-81015000D02*
X197070000Y-81015000D01*
X197070000Y-81015000D02*
X197070000Y-82505000D01*
%TO.C,J2*%
X186940000Y-71350000D02*
X194740000Y-71350000D01*
X186940000Y-77400000D02*
X186940000Y-71350000D01*
X188290000Y-76290000D02*
X193370000Y-76290000D01*
X188290000Y-77300000D02*
X188290000Y-76290000D01*
X193370000Y-76290000D02*
X193370000Y-77300000D01*
X194740000Y-71350000D02*
X194740000Y-77400000D01*
X194740000Y-77400000D02*
X186940000Y-77400000D01*
%TO.C,A1*%
X167340000Y-40760000D02*
X167340000Y-43430000D01*
X167340000Y-45970000D02*
X167340000Y-84200000D01*
X167340000Y-84200000D02*
X172420000Y-84200000D01*
X170010000Y-43430000D02*
X167340000Y-43430000D01*
X170010000Y-45970000D02*
X167340000Y-45970000D01*
X170010000Y-45970000D02*
X170010000Y-43430000D01*
X170010000Y-45970000D02*
X170010000Y-81530000D01*
X170010000Y-81530000D02*
X167340000Y-81530000D01*
X172420000Y-76320000D02*
X180300000Y-76320000D01*
X172420000Y-86740000D02*
X172420000Y-76320000D01*
X180300000Y-76320000D02*
X180300000Y-86740000D01*
X180300000Y-86740000D02*
X172420000Y-86740000D01*
X182710000Y-43430000D02*
X182710000Y-81530000D01*
X182710000Y-43430000D02*
X185380000Y-43430000D01*
X182710000Y-81530000D02*
X185380000Y-81530000D01*
X185380000Y-40760000D02*
X167340000Y-40760000D01*
X185380000Y-84200000D02*
X180300000Y-84200000D01*
X185380000Y-84200000D02*
X185380000Y-40760000D01*
%TD*%
M02*
